<svg xmlns="http://www.w3.org/2000/svg" id="Layer_2" data-name="Layer 2" viewBox="0 0 1090.2 513.01"><defs><style>      .cls-1 {        fill: #272726;      }      .cls-1, .cls-2 {        stroke-width: 0px;      }      .cls-2 {        fill: #a133c6;      }    </style></defs><g id="Capa_1" data-name="Capa 1"><g><path class="cls-1" d="m69.17,509.35L0,299h45.97l45.98,150.54,46.79-150.54h41.91l46.79,150.54,45.57-150.54h45.97l-69.17,210.35h-41.5l-48.42-153.8-49.23,153.8h-41.5Z"></path><path class="cls-1" d="m347.05,237.16c0-7.59,2.64-14.04,7.93-19.33,5.29-5.29,11.86-7.93,19.73-7.93s14.38,2.64,19.53,7.93c5.15,5.29,7.73,11.74,7.73,19.33s-2.58,14.04-7.73,19.33c-5.15,5.29-11.67,7.93-19.53,7.93s-14.44-2.65-19.73-7.93c-5.29-5.29-7.93-11.73-7.93-19.33Zm6.51,61.84h41.9v210.35h-41.9v-210.35Z"></path><path class="cls-1" d="m437.94,357.99c0-19.53,7.32-34.92,21.97-46.18,14.65-11.25,34.72-16.88,60.22-16.88s45.91,5.63,60.42,16.88c14.51,11.26,22.03,26.92,22.58,46.99h-43.53c-.27-8.68-3.87-15.52-10.78-20.55-6.91-5.02-16.07-7.53-27.46-7.53-13.02,0-22.99,2.18-29.9,6.51-6.91,4.34-10.37,10.72-10.37,19.12s3.12,14.31,9.36,18.51c6.24,4.21,14.1,7.46,23.6,9.77,9.49,2.31,19.66,4.47,30.52,6.51,10.84,2.03,21.01,5.15,30.51,9.36,9.49,4.21,17.35,10.04,23.6,17.5,6.24,7.46,9.36,17.84,9.36,31.13,0,19.8-7.32,35.33-21.97,46.59-14.65,11.26-35.67,16.88-63.06,16.88s-50.52-5.83-66.11-17.5c-15.6-11.66-23.4-27.26-23.4-46.79h43.54c2.98,18.99,18.57,28.48,46.79,28.48s40.69-8.27,40.69-24.82c0-8.14-3.12-14.1-9.36-17.9-6.24-3.79-14.04-6.85-23.39-9.15-9.36-2.3-19.53-4.41-30.52-6.31-10.98-1.9-21.16-4.95-30.51-9.16-9.36-4.2-17.16-10.3-23.39-18.31-6.24-8-9.36-19.05-9.36-33.16Z"></path><path class="cls-1" d="m668.91,414.96c1.08,8.41,3.39,16.21,6.92,23.4,3.52,7.19,8.14,13.43,13.83,18.71,5.7,5.29,12.34,9.43,19.94,12.41,7.59,2.99,16,4.48,25.23,4.48,12.21,0,22.78-2.64,31.73-7.93,8.95-5.29,15.73-11.86,20.34-19.73h48.42c-6.24,20.08-18.18,36.21-35.81,48.42-17.63,12.21-39.33,18.31-65.1,18.31-15.46,0-29.84-2.85-43.13-8.54-13.29-5.7-24.82-13.43-34.58-23.19-9.77-9.77-17.5-21.29-23.19-34.58-5.7-13.29-8.54-27.53-8.54-42.72s2.71-29.83,8.14-43.13c5.42-13.29,12.95-24.82,22.58-34.58,9.62-9.77,21.02-17.43,34.18-22.99,13.15-5.56,27.46-8.34,42.92-8.34,14.65,0,28.28,2.17,40.89,6.51,12.61,4.34,23.66,10.52,33.16,18.51,9.49,8,17.22,17.57,23.19,28.68,5.96,11.12,9.62,23.6,10.98,37.43.54,5.7.74,10.65.61,14.85-.14,4.21-.34,8.89-.61,14.04h-172.11Zm125.72-29.7c-1.63-15.46-8.07-27.87-19.33-37.23-11.26-9.36-25.43-14.04-42.52-14.04s-30.65,4.82-41.5,14.44c-10.85,9.63-17.9,21.91-21.16,36.82h124.5Z"></path><polygon class="cls-2" points="996.73 256.3 898.49 256.3 991.96 0 1090.2 0 996.73 256.3"></polygon><polygon class="cls-2" points="890.54 214.98 792.3 214.98 870.86 0 969.1 0 890.54 214.98"></polygon><polygon class="cls-2" points="769.38 214.98 671.14 214.98 749.71 0 847.95 0 769.38 214.98"></polygon><g><path class="cls-1" d="m876.64,356.23c0-6.75,1.24-13.02,3.73-18.82,2.48-5.8,5.89-10.83,10.21-15.09,4.32-4.26,9.38-7.61,15.19-10.03,5.8-2.42,12.08-3.64,18.82-3.64,5.68,0,11.07.86,16.16,2.57,5.09,1.72,9.62,4.11,13.59,7.19,3.96,3.08,7.31,6.75,10.03,11.01,2.72,4.26,4.62,9,5.68,14.21h-20.24c-1.66-4.97-4.71-9.06-9.15-12.25-4.44-3.2-9.8-4.79-16.07-4.79-4.38,0-8.35.8-11.9,2.4s-6.57,3.79-9.06,6.57c-2.49,2.78-4.41,5.98-5.77,9.59-1.36,3.61-2.04,7.37-2.04,11.28s.68,7.46,2.04,11.01c1.36,3.55,3.28,6.69,5.77,9.41,2.49,2.72,5.51,4.91,9.06,6.57,3.55,1.66,7.52,2.49,11.9,2.49,6.27,0,11.6-1.57,15.98-4.71,4.38-3.14,7.46-7.13,9.24-11.99h20.24c-1.07,5.09-2.96,9.74-5.68,13.94-2.72,4.2-6.1,7.84-10.12,10.92-4.03,3.08-8.56,5.48-13.59,7.19-5.03,1.71-10.39,2.57-16.07,2.57-6.75,0-13.03-1.24-18.82-3.73-5.8-2.48-10.86-5.86-15.19-10.12-4.32-4.26-7.73-9.29-10.21-15.1-2.49-5.8-3.73-12.01-3.73-18.65Z"></path><path class="cls-1" d="m1042.51,402.22l-21.84-31.08-22.2,31.08h-21.31l32.68-46-32.68-45.82h21.49l21.84,31.08,22.02-31.08h21.49l-32.85,45.82,32.5,46h-21.13Z"></path></g></g></g></svg>